<?xml version="1.0" encoding="UTF-8"?>
<svg xmlns="http://www.w3.org/2000/svg" width="800" height="1100" viewBox="0 0 800 1100">
  
  <rect width="800" height="1100" fill="#fbf6ea"/>
  <rect x="0" y="0" width="800" height="1100" fill="none" stroke="#e4d8c4" stroke-width="8"/>
  <line x1="72" y1="48" x2="72" y2="1072" stroke="#f0b4b0" stroke-width="2"/>
  <line x1="56" y1="92" x2="764" y2="92" stroke="#c9d7ea" stroke-width="1"/>
<line x1="56" y1="120" x2="764" y2="120" stroke="#c9d7ea" stroke-width="1"/>
<line x1="56" y1="148" x2="764" y2="148" stroke="#c9d7ea" stroke-width="1"/>
<line x1="56" y1="176" x2="764" y2="176" stroke="#c9d7ea" stroke-width="1"/>
<line x1="56" y1="204" x2="764" y2="204" stroke="#c9d7ea" stroke-width="1"/>
<line x1="56" y1="232" x2="764" y2="232" stroke="#c9d7ea" stroke-width="1"/>
<line x1="56" y1="260" x2="764" y2="260" stroke="#c9d7ea" stroke-width="1"/>
<line x1="56" y1="288" x2="764" y2="288" stroke="#c9d7ea" stroke-width="1"/>
<line x1="56" y1="316" x2="764" y2="316" stroke="#c9d7ea" stroke-width="1"/>
<line x1="56" y1="344" x2="764" y2="344" stroke="#c9d7ea" stroke-width="1"/>
<line x1="56" y1="372" x2="764" y2="372" stroke="#c9d7ea" stroke-width="1"/>
<line x1="56" y1="400" x2="764" y2="400" stroke="#c9d7ea" stroke-width="1"/>
<line x1="56" y1="428" x2="764" y2="428" stroke="#c9d7ea" stroke-width="1"/>
<line x1="56" y1="456" x2="764" y2="456" stroke="#c9d7ea" stroke-width="1"/>
<line x1="56" y1="484" x2="764" y2="484" stroke="#c9d7ea" stroke-width="1"/>
<line x1="56" y1="512" x2="764" y2="512" stroke="#c9d7ea" stroke-width="1"/>
<line x1="56" y1="540" x2="764" y2="540" stroke="#c9d7ea" stroke-width="1"/>
<line x1="56" y1="568" x2="764" y2="568" stroke="#c9d7ea" stroke-width="1"/>
<line x1="56" y1="596" x2="764" y2="596" stroke="#c9d7ea" stroke-width="1"/>
<line x1="56" y1="624" x2="764" y2="624" stroke="#c9d7ea" stroke-width="1"/>
<line x1="56" y1="652" x2="764" y2="652" stroke="#c9d7ea" stroke-width="1"/>
<line x1="56" y1="680" x2="764" y2="680" stroke="#c9d7ea" stroke-width="1"/>
<line x1="56" y1="708" x2="764" y2="708" stroke="#c9d7ea" stroke-width="1"/>
<line x1="56" y1="736" x2="764" y2="736" stroke="#c9d7ea" stroke-width="1"/>
<line x1="56" y1="764" x2="764" y2="764" stroke="#c9d7ea" stroke-width="1"/>
<line x1="56" y1="792" x2="764" y2="792" stroke="#c9d7ea" stroke-width="1"/>
<line x1="56" y1="820" x2="764" y2="820" stroke="#c9d7ea" stroke-width="1"/>
<line x1="56" y1="848" x2="764" y2="848" stroke="#c9d7ea" stroke-width="1"/>
<line x1="56" y1="876" x2="764" y2="876" stroke="#c9d7ea" stroke-width="1"/>
<line x1="56" y1="904" x2="764" y2="904" stroke="#c9d7ea" stroke-width="1"/>
<line x1="56" y1="932" x2="764" y2="932" stroke="#c9d7ea" stroke-width="1"/>
<line x1="56" y1="960" x2="764" y2="960" stroke="#c9d7ea" stroke-width="1"/>
<line x1="56" y1="988" x2="764" y2="988" stroke="#c9d7ea" stroke-width="1"/>
<line x1="56" y1="1016" x2="764" y2="1016" stroke="#c9d7ea" stroke-width="1"/>
<line x1="56" y1="1044" x2="764" y2="1044" stroke="#c9d7ea" stroke-width="1"/>
  <text x="88" y="58" font-size="13" fill="#8a7a66" font-family="Georgia, serif">A. Sharma  ·  Roll 17  ·  Class 10 Biology</text>
  <text x="752" y="58" text-anchor="end" font-size="13" fill="#8a7a66" font-family="Georgia, serif">Page 2 of 4</text>

  
      <text x="92" y="118" font-size="22" fill="#1e3f73" font-family="Comic Sans MS, Segoe Script, cursive" font-style="italic">Q6. Digestive system</text>
      <ellipse cx="230" cy="230" rx="42" ry="28" fill="none" stroke="#1e3f73" stroke-width="2"/>
      <path d="M230 258 C 210 310, 250 340, 270 390 C 290 450, 210 500, 250 560" fill="none" stroke="#1e3f73" stroke-width="8"/>
      <rect x="300" y="210" width="70" height="44" rx="16" fill="none" stroke="#1e3f73" stroke-width="2"/>
      <ellipse cx="400" cy="250" rx="36" ry="22" fill="none" stroke="#1e3f73" stroke-width="2"/>
      <text x="470" y="220" font-size="18" fill="#1e3f73" font-family="Comic Sans MS, Segoe Script, cursive" font-style="italic">liver</text>
<text x="470" y="248" font-size="18" fill="#1e3f73" font-family="Comic Sans MS, Segoe Script, cursive" font-style="italic">stomach</text>
<text x="470" y="276" font-size="18" fill="#1e3f73" font-family="Comic Sans MS, Segoe Script, cursive" font-style="italic">pancreas</text>
<text x="470" y="304" font-size="18" fill="#1e3f73" font-family="Comic Sans MS, Segoe Script, cursive" font-style="italic">small intestine *</text>
<text x="470" y="332" font-size="18" fill="#1e3f73" font-family="Comic Sans MS, Segoe Script, cursive" font-style="italic">large intestine</text>
      <text x="92" y="430" font-size="18" fill="#1e3f73" font-family="Comic Sans MS, Segoe Script, cursive" font-style="italic">* most absorption occurs in the small intestine / ileum.</text>
      <text x="92" y="520" font-size="22" fill="#1e3f73" font-family="Comic Sans MS, Segoe Script, cursive" font-style="italic">Q7. Nephron</text>
      <circle cx="210" cy="640" r="28" fill="none" stroke="#1e3f73" stroke-width="2"/>
      <circle cx="210" cy="640" r="12" fill="none" stroke="#c45c4a" stroke-width="2"/>
      <path d="M238 640 C 300 640, 320 700, 280 760 C 250 810, 360 820, 390 780 C 420 730, 480 760, 520 810" fill="none" stroke="#1e3f73" stroke-width="3"/>
      <text x="430" y="600" font-size="17" fill="#1e3f73" font-family="Comic Sans MS, Segoe Script, cursive" font-style="italic">Bowman's capsule</text>
<text x="430" y="628" font-size="17" fill="#1e3f73" font-family="Comic Sans MS, Segoe Script, cursive" font-style="italic">glomerulus</text>
<text x="430" y="656" font-size="17" fill="#1e3f73" font-family="Comic Sans MS, Segoe Script, cursive" font-style="italic">prox. tubule</text>
<text x="430" y="684" font-size="17" fill="#1e3f73" font-family="Comic Sans MS, Segoe Script, cursive" font-style="italic">loop of Henle</text>
<text x="430" y="712" font-size="17" fill="#1e3f73" font-family="Comic Sans MS, Segoe Script, cursive" font-style="italic">distal tubule</text>
<text x="430" y="740" font-size="17" fill="#1e3f73" font-family="Comic Sans MS, Segoe Script, cursive" font-style="italic">collecting duct</text>
      <text x="92" y="860" font-size="22" fill="#1e3f73" font-family="Comic Sans MS, Segoe Script, cursive" font-style="italic">Q8. Palisade mesophyll cells are tall and tightly</text>
<text x="92" y="888" font-size="22" fill="#1e3f73" font-family="Comic Sans MS, Segoe Script, cursive" font-style="italic">packed, with many chloroplasts, so they absorb</text>
    
</svg>